/* XPM */
static char * 16_group_xpm[] = {
"16 16 36 1",
" 	c None",
".	c #000000",
"+	c #A7A7A7",
"@	c #4D4D4D",
"#	c #B5B5B5",
"$	c #F8F5EA",
"%	c #EFE4BE",
"&	c #B6A980",
"*	c #8F8257",
"=	c #969696",
"-	c #95907E",
";	c #F4EAC5",
">	c #847546",
",	c #998951",
"'	c #AA9B68",
")	c #A19363",
"!	c #332D1B",
"~	c #F9F4E2",
"{	c #1C190D",
"]	c #817444",
"^	c #E5CE7F",
"/	c #F7F1DD",
"(	c #8A7C49",
"_	c #B8A562",
":	c #EED680",
"<	c #F4EBCC",
"[	c #D3C8A4",
"}	c #D5BF74",
"|	c #A39872",
"1	c #92834D",
"2	c #A69558",
"3	c #C9B572",
"4	c #CCB66E",
"5	c #C0AD65",
"6	c #D8C173",
"7	c #D0BB6E",
"                ",
"                ",
"   ..+..@       ",
"  ..+...#.      ",
"  .$%&*=..      ",
"  .-;>,').      ",
"  .!~{]^.....@  ",
"  ./(__.::::::. ",
"  .<[__.$%&}::. ",
"   .|12.-;>,3:. ",
"   .....!~{]4:. ",
"       ./(_56.. ",
"       .<[_7..  ",
"        .|12.   ",
"        .....   ",
"                "};
