/* XPM */
static char * 16_loopback_xpm[] = {
"16 16 7 1",
" 	c None",
".	c #FFFFFF",
"+	c #BABABA",
"@	c #5D7555",
"#	c #828282",
"$	c #83A67F",
"%	c #000000",
"                ",
"             .+ ",
"            .+..",
"         @  +.+#",
"      $@@@@ ++#%",
"     $@  @   +# ",
"     @          ",
"     @      @   ",
"     @      @   ",
"            @   ",
"   .+   @  @$   ",
"  .+.. @@@@$    ",
"  +.+#  @       ",
"  ++#%          ",
"   +#           ",
"                "};
