/* XPM */
static char * 16_penguin_xpm[] = {
"16 16 66 1",
" 	c None",
".	c #000000",
"+	c #020204",
"@	c #202020",
"#	c #DCDCDC",
"$	c #C4C4C4",
"%	c #9B9B9B",
"&	c #CCB56C",
"*	c #DED1AA",
"=	c #F6F3EA",
"-	c #EBCA1B",
";	c #9A790E",
">	c #B8A168",
",	c #BF9F5C",
"'	c #C9C6BE",
")	c #1D1C1E",
"!	c #424242",
"~	c #999998",
"{	c #EEEEED",
"]	c #F5F5F4",
"^	c #FEFEFC",
"/	c #818180",
"(	c #D5D5D4",
"_	c #F8F8F6",
":	c #FCFCFA",
"<	c #F7F7F6",
"[	c #DEDDDD",
"}	c #0B0B0C",
"|	c #6C6C6C",
"1	c #FDFDFB",
"2	c #FBFBF9",
"3	c #FAFAF9",
"4	c #717172",
"5	c #09090B",
"6	c #BCBCBB",
"7	c #F6F6F5",
"8	c #848484",
"9	c #09090A",
"0	c #C5C5C2",
"a	c #F7F7F5",
"b	c #FCF9EE",
"c	c #858279",
"d	c #0D0D0E",
"e	c #F3BB0C",
"f	c #8A711F",
"g	c #C3C3C2",
"h	c #EBD599",
"i	c #D6A208",
"j	c #D9A408",
"k	c #F5BD0C",
"l	c #E8B50C",
"m	c #3D3621",
"n	c #BFA974",
"o	c #E8AF0A",
"p	c #EBB20B",
"q	c #F4BB0C",
"r	c #D0AA39",
"s	c #C5C5C4",
"t	c #696969",
"u	c #5B4107",
"v	c #F5BC0C",
"w	c #EDB50C",
"x	c #C18B09",
"y	c #D1990A",
"z	c #D49B09",
"A	c #C78F09",
"       ....     ",
"      .++@.     ",
"      .#$%..    ",
"      .&*%..    ",
"     .=--;..    ",
"      .>,').    ",
"  ..!.~{]^/+....",
"   .!.(_:<[}... ",
"    .|1211345.  ",
"    .61711189.  ",
"    .01a11bcd.  ",
"   .efg211hij.  ",
"  .kklm211nope. ",
"  .qkkrsgtuevw. ",
"   .xy.....zA.  ",
"    ..     ..   "};
