/* XPM */
static char * 16_user2_xpm[] = {
"16 16 133 2",
"  	c None",
". 	c #000000",
"+ 	c #595959",
"@ 	c #A2A2A3",
"# 	c #CCCDCE",
"$ 	c #B5B5B8",
"% 	c #A0A0A3",
"& 	c #4B4D51",
"* 	c #434343",
"= 	c #646464",
"- 	c #5D5D5D",
"; 	c #8A8A8A",
"> 	c #E3E3E2",
", 	c #CCCCC9",
"' 	c #696762",
") 	c #5B5852",
"! 	c #65635B",
"~ 	c #5D5C5B",
"{ 	c #7E7E80",
"] 	c #797979",
"^ 	c #CDCDCD",
"/ 	c #B7B8B8",
"( 	c #F2F3F2",
"_ 	c #F6F2D5",
": 	c #EDE6BF",
"< 	c #D0CAAB",
"[ 	c #BCB084",
"} 	c #B2A477",
"| 	c #BBB6AA",
"1 	c #AEAFB7",
"2 	c #7D7E84",
"3 	c #C7C7C7",
"4 	c #C2C2C2",
"5 	c #CFCECA",
"6 	c #FFFFFF",
"7 	c #F6F2D2",
"8 	c #F4ECC7",
"9 	c #EBDEB1",
"0 	c #DECB8C",
"a 	c #D6C381",
"b 	c #E1D9B9",
"c 	c #CCCABE",
"d 	c #827E6E",
"e 	c #8C8A82",
"f 	c #565655",
"g 	c #F3F3EB",
"h 	c #F6F5EF",
"i 	c #FCFCF5",
"j 	c #F2ECDC",
"k 	c #EEEDE4",
"l 	c #F0EDE2",
"m 	c #E8E3CD",
"n 	c #E4DAAC",
"o 	c #DBD19E",
"p 	c #D5C893",
"q 	c #A49B79",
"r 	c #5A5A58",
"s 	c #4E4B37",
"t 	c #C7BE98",
"u 	c #FBFBF6",
"v 	c #D9D2AE",
"w 	c #5A574E",
"x 	c #A29676",
"y 	c #B2A682",
"z 	c #B9AF7E",
"A 	c #DED39A",
"B 	c #E6D99C",
"C 	c #DFDBC9",
"D 	c #5C5B58",
"E 	c #A59F85",
"F 	c #F4F3F0",
"G 	c #C4BE99",
"H 	c #88835F",
"I 	c #C7BE8D",
"J 	c #D2C692",
"K 	c #E2DBBB",
"L 	c #AFA680",
"M 	c #5B5B58",
"N 	c #C4BC97",
"O 	c #CCC7B9",
"P 	c #DBCFAF",
"Q 	c #CDC196",
"R 	c #D9CE96",
"S 	c #D1C796",
"T 	c #A69F7E",
"U 	c #747163",
"V 	c #585756",
"W 	c #E4DCB4",
"X 	c #FFFFF8",
"Y 	c #D2C08D",
"Z 	c #B2A168",
"` 	c #EADC94",
" .	c #EEE198",
"..	c #E8DA94",
"+.	c #D6CA91",
"@.	c #D9CC8E",
"#.	c #958F70",
"$.	c #48494E",
"%.	c #E4DDAF",
"&.	c #F8F4DE",
"*.	c #F2EACA",
"=.	c #E8DEB0",
"-.	c #ECDF99",
";.	c #F0E296",
">.	c #E4D792",
",.	c #D1C58B",
"'.	c #D9CC8D",
").	c #D5C98C",
"!.	c #6E6E6E",
"~.	c #A0A0A0",
"{.	c #DAD1A3",
"].	c #ECE2B1",
"^.	c #F1EAC0",
"/.	c #F0E7B5",
"(.	c #E5D690",
"_.	c #6C6547",
":.	c #A29869",
"<.	c #D0C58A",
"[.	c #E2D590",
"}.	c #D9CD8F",
"|.	c #D3CCAB",
"1.	c #E8DBA4",
"2.	c #D8C37B",
"3.	c #E4D082",
"4.	c #DDCF8B",
"5.	c #DFD28F",
"6.	c #E0D28F",
"7.	c #AFA47E",
"8.	c #A39467",
"9.	c #AC9E6E",
"0.	c #A89E74",
"a.	c #958F6F",
"b.	c #9D9D9D",
"                                ",
"        . . . . . . . . . .     ",
"      . + @ # $ % & * = * * .   ",
"    . - ; > , ' ) ! ~ { * ] ^ . ",
"    . / ( _ : < [ } | 1 2 3 4 . ",
"    . 5 6 7 8 9 0 a b c d e f . ",
"    . g h i j k l m n o p q r . ",
"    . s t u v w x y z A B C D . ",
"      E . F G H . A I J K L M . ",
"    . N O P Q A A A R S T U V . ",
"    . W X Y Z `  ...+.@.#.$.* . ",
"    . %.&.*.=.-.;.>.,.'.).!.~.. ",
"    . {.].^./.(._.:.<.[.}.. .   ",
"      . . |.1.2.3.4.5.6..       ",
"          . 7.8.9.0.a.b..       ",
"            . . . . . . .       "};
