/* XPM */
static char * 16_user_xpm[] = {
"16 16 31 1",
" 	c None",
".	c #181818",
"+	c #CECECE",
"@	c #404040",
"#	c #DFDFDF",
"$	c #FEFEFD",
"%	c #FBF9E8",
"&	c #D9CB96",
"*	c #AD954A",
"=	c #B8B8B8",
"-	c #B1AB90",
";	c #FDFBED",
">	c #9C7B35",
",	c #BDA244",
"'	c #C9B96E",
")	c #BEAC65",
"!	c #322811",
"~	c #FEFEFB",
"{	c #29230A",
"]	c #967933",
"^	c #F2E997",
"/	c #C5B56C",
"(	c #FEFDF9",
"_	c #A58838",
":	c #D6C265",
"<	c #C7B56C",
"[	c #FDFBF0",
"}	c #F1ECCE",
"|	c #C2B47B",
"1	c #B2953D",
"2	c #C2AD57",
"                ",
"                ",
"                ",
"                ",
"     ..+..@     ",
"    ..+...#.    ",
"    .$%&*=..    ",
"    .-;>,').    ",
"    .!~{]^/.    ",
"    .(_::<..    ",
"    .[}::..     ",
"     .|12.      ",
"     .....      ",
"                ",
"                ",
"                "};
