/* XPM */
static char * connection_active_xpm[] = {
"20 20 90 1",
" 	c None",
".	c #2E2E2E",
"+	c #000000",
"@	c #9C9C98",
"#	c #CACAC2",
"$	c #CBCBC4",
"%	c #9E9E98",
"&	c #CDCDC8",
"*	c #D3D3CB",
"=	c #B0B0AD",
"-	c #C2C2C1",
";	c #E8E8E2",
">	c #ECECE7",
",	c #A5A5A0",
"'	c #E4E4DC",
")	c #B1B1AA",
"!	c #BEBEBE",
"~	c #F1F1EE",
"{	c #F3F3F1",
"]	c #BBBBB5",
"^	c #C4C4C4",
"/	c #949491",
"(	c #757571",
"_	c #B7B7B3",
":	c #D4D4CF",
"<	c #EFEFEB",
"[	c #F7F7F5",
"}	c #575754",
"|	c #898985",
"1	c #7E7E7A",
"2	c #4F4F4C",
"3	c #C2C2BD",
"4	c #F2F2EF",
"5	c #E4E4E1",
"6	c #525250",
"7	c #5A5A58",
"8	c #676764",
"9	c #B4B4AF",
"0	c #B6B6B2",
"a	c #BCBCB7",
"b	c #EAEAE7",
"c	c #EFEFEC",
"d	c #E5E5E2",
"e	c #ECECE8",
"f	c #F0F0EE",
"g	c #878785",
"h	c #4D4D4A",
"i	c #5C5C5A",
"j	c #BABAB4",
"k	c #595956",
"l	c #989894",
"m	c #C0C0BD",
"n	c #D5D5D2",
"o	c #B4B4B4",
"p	c #919190",
"q	c #4B4B49",
"r	c #474746",
"s	c #646463",
"t	c #60605D",
"u	c #949490",
"v	c #984346",
"w	c #4E4E4D",
"x	c #5B5B5A",
"y	c #535352",
"z	c #555554",
"A	c #4C4C4A",
"B	c #575756",
"C	c #51514F",
"D	c #61615E",
"E	c #777773",
"F	c #A05456",
"G	c #76282B",
"H	c #4E1A1C",
"I	c #333333",
"J	c #4B4B4A",
"K	c #373736",
"L	c #595958",
"M	c #5C5C59",
"N	c #913235",
"O	c #40403F",
"P	c #575755",
"Q	c #747471",
"R	c #83837F",
"S	c #686865",
"T	c #797975",
"U	c #3F1516",
"V	c #666665",
"W	c #5A5A59",
"X	c #5A5A57",
"Y	c #290D0E",
"                    ",
"                    ",
"                    ",
"       .+++         ",
"      +@#$%++++     ",
"      +&&####*%+++  ",
"     +=-;>;;,'''$)+ ",
"     +!>~~{{;]'^/(+ ",
"    +_:<{~{[;}|1(2+ ",
"    +&3<<<<45678(+  ",
"   +90abcdefghi8(+  ",
"   +;jklmnopqrs8t+  ",
"  +juuuvwxyzAB8t+   ",
"  +CDEFGHIJKLMt(+   ",
"   +++NHOPQRSttt+   ",
"     NG++CDETtt+    ",
"     NU  +++VWX+    ",
"     NY     +++     ",
"     G              ",
"                    "};
