/* XPM */
static char * connection_inactive_xpm[] = {
"20 20 73 1",
" 	c None",
".	c #2E2E2E",
"+	c #000000",
"@	c #9C9C98",
"#	c #E4E4DC",
"$	c #CBCBC4",
"%	c #9E9E98",
"&	c #E8E8E2",
"*	c #D3D3CB",
"=	c #B0B0AD",
"-	c #DCDCDA",
";	c #6E6E6C",
">	c #373735",
",	c #494946",
"'	c #5A5A57",
")	c #BBBBB5",
"!	c #B1B1AA",
"~	c #D7D7D7",
"{	c #525251",
"]	c #262625",
"^	c #B2B2AC",
"/	c #BEBEB7",
"(	c #B3B3AD",
"_	c #646460",
":	c #C4C4C4",
"<	c #949491",
"[	c #757571",
"}	c #B7B7B3",
"|	c #777776",
"1	c #282827",
"2	c #D7D7CF",
"3	c #E5E5DF",
"4	c #E6E6E0",
"5	c #E4E4DE",
"6	c #DCDCD6",
"7	c #BFBFB8",
"8	c #AFAFA9",
"9	c #8F8F8A",
"0	c #4F4F4C",
"a	c #353532",
"b	c #191919",
"c	c #787874",
"d	c #CFCFCA",
"e	c #DEDED6",
"f	c #B4B4AF",
"g	c #3C3C3A",
"h	c #CDCDC6",
"i	c #5D5D5B",
"j	c #B9B9B4",
"k	c #0E0E0E",
"l	c #9F9F9B",
"m	c #BBBBB4",
"n	c #BABAB4",
"o	c #D0D0CB",
"p	c #DCDCD5",
"q	c #90908C",
"r	c #8B8B88",
"s	c #60605D",
"t	c #949490",
"u	c #A8A8A2",
"v	c #DBDBD3",
"w	c #CBCBC8",
"x	c #CFCFCB",
"y	c #51514F",
"z	c #61615E",
"A	c #777773",
"B	c #ACACAA",
"C	c #A6A6A3",
"D	c #797977",
"E	c #858581",
"F	c #797975",
"G	c #666665",
"H	c #5A5A59",
"                    ",
"                    ",
"                    ",
"       .+++         ",
"      +@#$%++++     ",
"      +&&####*%+++  ",
"     +=-;>,')###$!+ ",
"     +~{]^/(_)#:<[+ ",
"    +}|123456789[0+ ",
"    +&a%bc&d&e9[[+  ",
"   +f&ghijjklm[[[+  ",
"   +&ncop&&qdrs[s+  ",
"  +ntttuv#&wxs[s+   ",
"  +yzAtttBCtD[s[+   ",
"   +++yzAtttEsss+   ",
"      +++yzAFss+    ",
"         +++GH'+    ",
"            +++     ",
"                    ",
"                    "};
