/* XPM */
static char * reading_xpm[] = {
"48 48 128 2",
"  	c None",
". 	c #404040",
"+ 	c #7A7E7E",
"@ 	c #AAAAAA",
"# 	c #969A9A",
"$ 	c #924E26",
"% 	c #BE8260",
"& 	c #5E5E5E",
"* 	c #AA7E62",
"= 	c #666A6A",
"- 	c #929292",
"; 	c #D2B6AA",
"> 	c #8A8A8A",
", 	c #727272",
"' 	c #967A6A",
") 	c #B29A92",
"! 	c #BABABA",
"~ 	c #A2A2A2",
"{ 	c #CEB6A9",
"] 	c #664E40",
"^ 	c #965226",
"/ 	c #8A6048",
"( 	c #4C4C4C",
"_ 	c #B6B6B6",
": 	c #867A72",
"< 	c #868686",
"[ 	c #C4ACA2",
"} 	c #907264",
"| 	c #727676",
"1 	c #565656",
"2 	c #8A6A52",
"3 	c #AEAEAE",
"4 	c #72625A",
"5 	c #96562E",
"6 	c #A4948A",
"7 	c #626262",
"8 	c #968E8E",
"9 	c #A6A6A6",
"0 	c #9E9E9E",
"a 	c #996A4C",
"b 	c #8E8E8E",
"c 	c #AE8266",
"d 	c #828282",
"e 	c #766A62",
"f 	c #BCAAA0",
"g 	c #7A7A7A",
"h 	c #624E42",
"i 	c #969696",
"j 	c #6A6E6E",
"k 	c #7E5A42",
"l 	c #C2C2C2",
"m 	c #5A463A",
"n 	c #928A8A",
"o 	c #9A6446",
"p 	c #625A55",
"q 	c #7E726A",
"r 	c #8E6246",
"s 	c #6A5A52",
"t 	c #8E8685",
"u 	c #C4A69A",
"v 	c #B2B2B2",
"w 	c #666666",
"x 	c #AE9E96",
"y 	c #5E524E",
"z 	c #A6765A",
"A 	c #B69E96",
"B 	c #7E7672",
"C 	c #B78261",
"D 	c #8A827E",
"E 	c #5A5A5A",
"F 	c #764E32",
"G 	c #A68A7E",
"H 	c #B6AAA6",
"I 	c #525251",
"J 	c #6A5E56",
"K 	c #BE8662",
"L 	c #BEBEBE",
"M 	c #9E725A",
"N 	c #B98667",
"O 	c #B6A296",
"P 	c #7A726E",
"Q 	c #7A7675",
"R 	c #DABAAA",
"S 	c #534E4B",
"T 	c #666262",
"U 	c #868282",
"V 	c #966646",
"W 	c #464646",
"X 	c #D6BAAA",
"Y 	c #7A6E6A",
"Z 	c #827E7A",
"` 	c #6A6A6A",
" .	c #928E8D",
"..	c #8A7A76",
"+.	c #9E8E82",
"@.	c #726A66",
"#.	c #5E5A5A",
"$.	c #5A5653",
"%.	c #AEAAA8",
"&.	c #9E9A9A",
"*.	c #625E5E",
"=.	c #767272",
"-.	c #CAAEA2",
";.	c #767676",
">.	c #76665E",
",.	c #AAA6A6",
"'.	c #7E7A76",
").	c #6E6E6E",
"!.	c #6A6666",
"~.	c #92664A",
"{.	c #A77A5F",
"].	c #D2B6AE",
"^.	c #847A79",
"/.	c #6E6666",
"(.	c #BA8A6A",
"_.	c #BAA69D",
":.	c #D6B6A6",
"<.	c #565250",
"[.	c #A88268",
"}.	c #C6C6C2",
"|.	c #726E6E",
"1.	c #7E7E7E",
"2.	c #9A9A9A",
"3.	c #8E8A86",
"4.	c #BEBABA",
"5.	c #BAB6B2",
"6.	c #8A8686",
"7.	c #B2AEAE",
"                                                                                                ",
"                                                                                                ",
"                                                                                                ",
"                                                                                                ",
"                                                            v 2.2.0                             ",
"                                                      6 B , ` ` w & & ;.                        ",
"                                                    ^.T T ;.g ;., ).` & `                       ",
"                                                  1., + d 1.g ;., , ).` & `                     ",
"                                          x D 1.g d > > d 1.g g ;., , ` ` & ,                   ",
"                                        t Y |.> - - b > < 1.1.g ;., , ).` ` & ,                 ",
"                                      d g b # 2.i - b > < d 1.g ;.;., ).` ` ` E ).              ",
"                              5.&.> d b 2.0 2.i i - - b < d 1.1.g ;., , ).` ` w & ;.            ",
"                            n e =.- 0 ~ 0 0 2.2.i - b b < < d 1.g ;., ;., ).).).` 7 g           ",
"                          ;., - 9 9 ~ ~ 0 0 2.2.i - b b > < d d 1.g ;.;., )., ).).` 7 ;.        ",
"                  +.q |.).b 9 9 9 9 9 ~ 0 0 2.2.i - b b > < < d 1.1.g ;.;., , ).).).` 7 ;.      ",
"                ^.h p < ~ @ 9 9 9 9 9 ~ ~ 0 2.i i - - b > > > < d 1.1.g ;.;., , , ).).` 7 <     ",
"              !.& - @ @ @ 9 9 9 9 9 9 9 ~ 0 2.2.2.i - b > > < < < 1.d g ;.g ;.;., ).).` ` E -   ",
"      G k y ).b @ 3 @ @ @ 9 9 9 9 9 9 ~ ~ 0 0 2.i i - b b > < < < d d 1.g g ;.;., ).).` ` 1 g   ",
"    t s J > @ v v 3 @ @ 9 9 9 9 9 9 9 ~ ~ 0 0 0 2.i i b b > > < < d d 1.1.g g ;., , ).).` I ,   ",
"  9 ).2._ ! _ v v 3 @ @ 9 9 9 9 9 9 9 ~ ~ 0 0 0 2.i - - b b > < < < d d 1.1.g g ;., ).w 7 E ;.  ",
"  < 0 l L ! _ v v 3 @ @ 9 9 9 9 9 9 9 ~ ~ ~ 0 0 2.i i - b b > > < < < d d d 1.g ;.= 7 #.E E ;.  ",
"  < v l L ! _ _ v 3 @ < , ).;.> ~ ~ ~ ~ ~ 0 0 0 2.2.i - - b > > < < < d d d 1., = P } s <.1 ,   ",
"  < ,.L L L ! _ v v 1.;.> b > d 2.~ ~ ~ ~ ~ 0 0 2.2.i - - b > > > < < d 1.g ;.` Z O c / S 1 g   ",
"  1.0 %.! L ! _ v 3 , > - i 9 ~ 3 ~ ~ ~ 0 ~ 0 2.2.2.i i - b b > > > d ;.).).` w t f [.~.S 1 2.  ",
"  , 0 2.,.! ! _ _ v d > i 9 v ! _ ~ ~ 0 0 0 0 2.i i i - - - b b < d | : ' >.T w 3._.* r S &     ",
"  ` 2.i i ~ _ _ _ v 3 b ~ v ! _ ~ ~ ~ 0 0 0 2.2.2.i i - - b > < d ;.U [ (.a #.7 6._.{.r p L     ",
"  w i - - b ~ _ _ v v 3 @ @ 9 9 ~ ~ 0 0 0 2.2.2.i i i - > d d g g |  .{ N a $.7 D _.{.r 7.      ",
"  7 b - b > b 0 3 _ v 3 @ 9 9 9 ~ 0 0 0 0 2.2.2.2.- b < 1.Q q ` , , 8 { N o <.E Q A z r         ",
"  b w > > > < < i 3 v 3 @ @ 9 ~ ~ 0 0 2.2.2.2.i - b d 1.Q ) c 2 w ). .{ C V $.i }.%.{.r         ",
"    - 7 d < d 1.1.< 0 3 @ 9 9 ~ ~ 0 0 2.2.i b d g g g g n ; N a *.). .{ K r @       {.r         ",
"      > & 1.1.1.g ;.d 2.9 9 9 ~ 0 0 2.i b < ;.: } 4 ).;.n ; C a $.& ^.-.K r         {.r         ",
"        < E g g ;., ).g b ~ ~ ~ i > < d 1.g '.u C / w ;.n ; C r I < 4.H K r         {.r         ",
"          - 1 , , ).` w ` g b > d ;.@./.=.;.t :.% r T g 8 ; K r 0       K r         {.          ",
"            > 1 ` ` w w & w 1.d Q ..M F p , n X % r T ).t ; K r         K r                     ",
"              d I w w 7 & 7 1.d Z u K $ h ` n X K r #.1.9 [ K r         K r                     ",
"                b ( & & E & 1.d U ].% $ ] j n R K r ~       K r         K                       ",
"                  < ( 1 1 & 1.< U ].% $ ] w B :.K r         K r                                 ",
"                    d . I E 1.< U ].% ^ m & 9 f K r         K r                                 ",
"                      < W I 1.< U { K 5 :       K r         K                                   ",
"                        d . 7 j *.6 K o         K r                                             ",
"                          b < 2.@ v K r         K [.                                            ",
"                                    K r         K                                               ",
"                                    K r                                                         ",
"                                    K r                                                         ",
"                                    K                                                           ",
"                                                                                                ",
"                                                                                                ",
"                                                                                                "};
